<svg version="1.2" baseProfile="tiny-ps" xmlns="http://www.w3.org/2000/svg" viewBox="0 0 1500 1500" width="1500" height="1500">
	<title>4882131-ai</title>
	<defs>
		<linearGradient id="grd1" gradientUnits="userSpaceOnUse"  x1="1163.251" y1="243.403" x2="1228.933" y2="949.48">
			<stop offset="0" stop-color="#ff673b"  />
			<stop offset="1" stop-color="#d63b1c"  />
		</linearGradient>
		<linearGradient id="grd2" gradientUnits="userSpaceOnUse"  x1="1163.582" y1="248.073" x2="1229.544" y2="957.163">
			<stop offset="0" stop-color="#d63b1c"  />
			<stop offset="1" stop-color="#ff673b"  />
		</linearGradient>
		<linearGradient id="grd3" gradientUnits="userSpaceOnUse"  x1="1032" y1="262.067" x2="1061.665" y2="580.965">
			<stop offset="0" stop-color="#ffffff"  />
			<stop offset="1" stop-color="#969696"  />
		</linearGradient>
		<linearGradient id="grd4" gradientUnits="userSpaceOnUse"  x1="1138.754" y1="305.138" x2="1147.654" y2="892.529">
			<stop offset="0" stop-color="#ff673b"  />
			<stop offset="1" stop-color="#a32919"  />
		</linearGradient>
		<linearGradient id="grd5" gradientUnits="userSpaceOnUse"  x1="1094.069" y1="311.788" x2="1043.575" y2="512.993">
			<stop offset="0" stop-color="#ffffff"  />
			<stop offset="1" stop-color="#6b6b6b"  />
		</linearGradient>
		<linearGradient id="grd6" gradientUnits="userSpaceOnUse"  x1="1106.288" y1="542.403" x2="1133.359" y2="833.413">
			<stop offset="0" stop-color="#ff673b"  />
			<stop offset="1" stop-color="#d63b1c"  />
		</linearGradient>
		<linearGradient id="grd7" gradientUnits="userSpaceOnUse"  x1="523.661" y1="282.381" x2="525.849" y2="426.792">
			<stop offset="0" stop-color="#ff673b"  />
			<stop offset="1" stop-color="#a32919"  />
		</linearGradient>
		<linearGradient id="grd8" gradientUnits="userSpaceOnUse"  x1="515.3" y1="356.602" x2="513.075" y2="411.113">
			<stop offset="0" stop-color="#ffffff"  />
			<stop offset="1" stop-color="#969696"  />
		</linearGradient>
		<linearGradient id="grd9" gradientUnits="userSpaceOnUse"  x1="737.429" y1="271.805" x2="801.426" y2="959.777">
			<stop offset="0" stop-color="#ff673b"  />
			<stop offset="1" stop-color="#d63b1c"  />
		</linearGradient>
		<linearGradient id="grd10" gradientUnits="userSpaceOnUse"  x1="558.54" y1="289.337" x2="622.95" y2="981.743">
			<stop offset="0" stop-color="#d63b1c"  />
			<stop offset="1" stop-color="#ff673b"  />
		</linearGradient>
		<linearGradient id="grd11" gradientUnits="userSpaceOnUse"  x1="752.944" y1="121.743" x2="764.278" y2="869.758">
			<stop offset="0" stop-color="#ff673b"  />
			<stop offset="1" stop-color="#a32919"  />
		</linearGradient>
		<linearGradient id="grd12" gradientUnits="userSpaceOnUse"  x1="757.023" y1="372.815" x2="623.526" y2="1026.952">
			<stop offset="0" stop-color="#ffffff"  />
			<stop offset="1" stop-color="#969696"  />
		</linearGradient>
		<linearGradient id="grd13" gradientUnits="userSpaceOnUse"  x1="775.82" y1="322.044" x2="630.084" y2="902.76">
			<stop offset="0" stop-color="#ffffff"  />
			<stop offset="1" stop-color="#6b6b6b"  />
		</linearGradient>
		<linearGradient id="grd14" gradientUnits="userSpaceOnUse"  x1="735.23" y1="386.911" x2="768.575" y2="745.371">
			<stop offset="0" stop-color="#ff673b"  />
			<stop offset="1" stop-color="#d63b1c"  />
		</linearGradient>
		<linearGradient id="grd15" gradientUnits="userSpaceOnUse"  x1="588.021" y1="492.108" x2="633.577" y2="981.832">
			<stop offset="0" stop-color="#ff673b"  />
			<stop offset="1" stop-color="#d63b1c"  />
		</linearGradient>
		<linearGradient id="grd16" gradientUnits="userSpaceOnUse"  x1="722.959" y1="1020.219" x2="599.368" y2="844.283">
			<stop offset="0" stop-color="#ff673b"  />
			<stop offset="1" stop-color="#a32919"  />
		</linearGradient>
		<linearGradient id="grd17" gradientUnits="userSpaceOnUse"  x1="773.933" y1="988.537" x2="632.604" y2="896.865">
			<stop offset="0" stop-color="#ff673b"  />
			<stop offset="1" stop-color="#a32919"  />
		</linearGradient>
		<linearGradient id="grd18" gradientUnits="userSpaceOnUse"  x1="758.024" y1="665.466" x2="778.957" y2="890.492">
			<stop offset="0" stop-color="#ff673b"  />
			<stop offset="1" stop-color="#d63b1c"  />
		</linearGradient>
		<linearGradient id="grd19" gradientUnits="userSpaceOnUse"  x1="782.102" y1="626.728" x2="735.629" y2="868.005">
			<stop offset="0" stop-color="#ff673b"  />
			<stop offset="1" stop-color="#d63b1c"  />
		</linearGradient>
		<linearGradient id="grd20" gradientUnits="userSpaceOnUse"  x1="744.661" y1="760.222" x2="756.993" y2="892.786">
			<stop offset="0" stop-color="#ff673b"  />
			<stop offset="1" stop-color="#d63b1c"  />
		</linearGradient>
		<linearGradient id="grd21" gradientUnits="userSpaceOnUse"  x1="863.922" y1="600.583" x2="987.514" y2="776.519">
			<stop offset="0" stop-color="#ff673b"  />
			<stop offset="1" stop-color="#a32919"  />
		</linearGradient>
		<linearGradient id="grd22" gradientUnits="userSpaceOnUse"  x1="812.948" y1="632.265" x2="954.277" y2="723.937">
			<stop offset="0" stop-color="#ff673b"  />
			<stop offset="1" stop-color="#a32919"  />
		</linearGradient>
		<linearGradient id="grd23" gradientUnits="userSpaceOnUse"  x1="828.857" y1="955.336" x2="807.924" y2="730.31">
			<stop offset="0" stop-color="#ff673b"  />
			<stop offset="1" stop-color="#d63b1c"  />
		</linearGradient>
		<linearGradient id="grd24" gradientUnits="userSpaceOnUse"  x1="804.779" y1="994.075" x2="851.252" y2="752.797">
			<stop offset="0" stop-color="#ff673b"  />
			<stop offset="1" stop-color="#d63b1c"  />
		</linearGradient>
		<linearGradient id="grd25" gradientUnits="userSpaceOnUse"  x1="842.22" y1="860.581" x2="829.888" y2="728.016">
			<stop offset="0" stop-color="#ff673b"  />
			<stop offset="1" stop-color="#d63b1c"  />
		</linearGradient>
	</defs>
	<style>
		tspan { white-space:pre }
		.txt0 { font-size: 43px;fill: #182d3e;font-weight: 600;font-family: "Montserrat-SemiBold", "Montserrat" } 
		.txt1 { font-size: 43px;fill: #ec4900;font-weight: 700;font-family: "Montserrat-Bold", "Montserrat" } 
		.txt2 { font-size: 43px;fill: #ec4900;font-weight: 800;font-family: "Montserrat-ExtraBold", "Montserrat" } 
		.shp3 { fill: url(#grd1) } 
		.shp4 { fill: url(#grd2) } 
		.shp5 { fill: url(#grd3) } 
		.shp6 { fill: url(#grd4) } 
		.shp7 { fill: url(#grd5) } 
		.shp8 { fill: url(#grd6) } 
		.shp9 { fill: #ec4900 } 
		.shp10 { fill: url(#grd7) } 
		.shp11 { fill: url(#grd8) } 
		.shp12 { fill: url(#grd9) } 
		.shp13 { fill: url(#grd10) } 
		.shp14 { fill: url(#grd11) } 
		.shp15 { fill: url(#grd12) } 
		.shp16 { fill: url(#grd13) } 
		.shp17 { fill: url(#grd14) } 
		.shp18 { fill: url(#grd15) } 
		.shp19 { fill: url(#grd16) } 
		.shp20 { fill: url(#grd17) } 
		.shp21 { fill: url(#grd18) } 
		.shp22 { fill: url(#grd19) } 
		.shp23 { fill: url(#grd20) } 
		.shp24 { fill: url(#grd21) } 
		.shp25 { fill: url(#grd22) } 
		.shp26 { fill: url(#grd23) } 
		.shp27 { fill: url(#grd24) } 
		.shp28 { fill: url(#grd25) } 
	</style>
	<g id="BACKGROUND">
	</g>
	<g id="OBJECTS">
		<g id="&lt;Group&gt;">
			<g id="&lt;Group&gt;">
				<text id="FOX CODE DEV" style="transform: matrix(3,0,0,3,742.396,1153.408)" >
					<tspan x="-172.697" y="0" class="txt0">FOX</tspan><tspan  y="0" class="txt1"> </tspan><tspan  y="0" class="txt2">CODE</tspan><tspan  y="0" class="txt2"> </tspan><tspan  y="0" class="txt2">D</tspan><tspan  y="0" class="txt2">E</tspan><tspan  y="0" class="txt2">V</tspan><tspan  y="0" class="txt2">
</tspan>
				</text>
			</g>
			<g id="&lt;Group&gt;">
				<g id="&lt;Group&gt;">
					<path id="&lt;Path&gt;" class="shp3" d="M960.24 979.46C1103.02 913.36 1094.35 763.82 1011.56 662.73C957.32 596.55 897.19 546.09 862.63 493.28C862.59 493.19 862.55 493.15 862.46 493.06C835.57 451.89 824.25 409.27 843.46 356.68C857.88 321.43 903.24 276.12 948.08 268.41C959.19 372.11 1065.55 461.69 1130.91 544.83C1253.35 700.47 1219.71 927.87 960.24 979.46Z" />
					<g id="&lt;Group&gt;">
						<path id="&lt;Path&gt;" class="shp4" d="M948.08 268.41C949.36 277.85 951.24 287.19 953.85 296.33C956.55 305.44 959.65 314.44 963.46 323.14C971.01 340.56 980.42 357.14 990.99 372.9C1011.95 404.6 1036.92 433.43 1062.24 461.81C1074.94 475.99 1087.8 490.05 1100.38 504.39C1112.93 518.76 1125.49 533.13 1137.02 548.47C1148.76 563.66 1159.03 579.99 1167.89 597.03C1176.75 614.07 1184.38 631.82 1189.85 650.27C1200.82 687.08 1205.11 726.27 1199.54 764.48C1194.17 802.55 1179.74 839.7 1156.18 870.23C1144.55 885.53 1131.25 899.58 1116.38 911.73C1101.44 923.75 1085.46 934.47 1068.51 943.38C1051.42 951.97 1033.89 959.74 1015.64 965.39C1006.65 968.62 997.36 970.85 988.17 973.38C983.59 974.72 978.88 975.51 974.22 976.54L960.24 979.46C997.38 971.19 1033.85 959.1 1067.11 940.79C1083.75 931.68 1099.4 920.89 1113.95 908.82C1128.43 896.64 1141.29 882.64 1152.48 867.48C1174.96 837.16 1189.14 801.04 1194.13 763.73C1199.4 726.37 1195.01 688.04 1184.12 652.01C1178.84 633.9 1171.43 616.44 1162.82 599.66C1154.18 582.88 1144.17 566.77 1132.67 551.76C1109.84 521.52 1083.65 493.74 1058.8 464.85C1033.85 436.05 1009.14 406.75 988.54 374.5C978.27 358.38 969.18 341.46 962 323.75C958.38 314.9 955.46 305.78 952.98 296.57C950.65 287.3 949.06 277.88 948.08 268.41Z" />
					</g>
					<path id="&lt;Path&gt;" class="shp5" d="M949.56 497.51C926.06 481.44 908.05 462.16 895.53 439.64C891.52 462.04 891.91 482.17 893.48 497.29C859.71 453.02 846.69 414.46 864.64 364.87C874.62 340.78 901.98 311.76 930.39 297.99C947.34 365.75 997.79 426.66 1046.42 481.65C1001.05 472.73 966.02 455.2 941.32 429.06C940.4 449.3 943.14 472.12 949.56 497.51Z" />
					<path id="&lt;Path&gt;" class="shp6" d="M1140.45 813.15C1120.41 882.12 1077.05 943.25 960.24 979.46C1103.02 913.36 1094.35 763.82 1011.56 662.73C957.32 596.55 897.19 546.09 862.63 493.28C933 593.93 969.12 578.42 1082.59 695.2L1087.03 666.09C1121.89 717.13 1130.43 773.19 1112.65 834.28L1140.45 813.15Z" />
					<path id="&lt;Path&gt;" class="shp7" d="M949.56 497.51C926.06 481.44 908.05 462.16 895.53 439.64C891.52 462.04 891.91 482.17 893.48 497.29C859.71 453.02 846.69 414.46 864.64 364.87C874.62 340.78 901.98 311.76 930.39 297.99C897.37 337.55 896.25 378.16 906.27 405.97C909.97 391.14 918.87 379.27 932.96 370.37C956 424.25 993.82 461.34 1046.42 481.65C1001.05 472.73 966.02 455.2 941.32 429.06C940.4 449.3 943.14 472.12 949.56 497.51Z" />
					<g id="&lt;Group&gt;">
						<path id="&lt;Path&gt;" class="shp8" d="M922.47 561.63C936.08 572.5 950.25 582.54 964.65 592.32C978.97 602.21 993.25 612.24 1007.02 622.97C1020.87 633.62 1034.14 645 1047.12 656.67C1060.09 668.38 1072.45 680.72 1084.73 693.11L1079.62 694.74L1084.15 665.65L1085.37 657.78L1089.44 664.45L1095.24 673.94L1098.13 678.69C1099.04 680.31 1099.77 682.02 1100.59 683.67L1105.4 693.69C1106.8 697.12 1108.03 700.61 1109.35 704.07L1111.29 709.27L1112.81 714.6C1113.79 718.16 1114.89 721.7 1115.7 725.3L1117.86 736.16C1118.67 739.76 1118.89 743.46 1119.43 747.1C1121.16 761.72 1121.53 776.49 1120.35 791.12C1119.1 805.72 1116.86 820.28 1112.65 834.28C1115.75 820.02 1117.39 805.5 1117.82 790.98C1118.21 776.47 1117.39 761.95 1115.22 747.67C1114.59 744.11 1114.28 740.5 1113.39 737L1110.99 726.45C1110.12 722.95 1108.91 719.55 1107.92 716.09L1106.36 710.92L1104.39 705.9C1103.05 702.57 1101.8 699.19 1100.39 695.89L1095.56 686.26C1094.74 684.66 1094.01 683.02 1093.11 681.47L1090.28 676.89L1084.62 667.73L1089.91 666.53L1085.55 695.65L1084.66 701.58L1080.44 697.28C1068.28 684.91 1056.05 672.6 1043.27 660.87C1030.61 649.02 1017.5 637.66 1004.1 626.65C990.67 615.67 976.83 605.18 962.92 594.71C949.11 584.13 935.19 573.54 922.47 561.63Z" />
					</g>
				</g>
				<g id="&lt;Group&gt;">
					<path id="&lt;Path&gt;" class="shp9" d="M519.66 414.56C505.73 422.84 490.2 433.94 473.49 448.26C464.52 429.24 457.05 405.96 451.59 381.31C471.24 355.89 489.68 338.07 506.91 327.86C507.24 346.82 510.35 380.59 519.66 414.56Z" />
					<path id="&lt;Path&gt;" class="shp10" d="M519.66 414.56C505.73 422.84 490.2 433.94 473.49 448.26C464.52 429.24 457.05 405.96 451.59 381.31C471.24 355.89 489.68 338.07 506.91 327.86C507.24 346.82 510.35 380.59 519.66 414.56Z" />
					<path id="&lt;Path&gt;" class="shp11" d="M506.4 427.54L470.03 441.9L458.39 398.87C470.66 381 482.4 368.3 493.6 360.77C494.55 373.52 497.93 396.15 505.5 418.66" />
					<path id="&lt;Path&gt;" class="shp12" d="M627.3 979.46C623.68 979.46 620.07 979.42 616.54 979.33C287.22 971.88 243.21 638.94 358.2 493.28C388.35 455.11 368.96 366.66 462.03 300.91C460.46 318.6 460.29 337.29 461.42 355.38C462.73 377.34 465.95 398.43 471.05 416.07C487.43 406.05 502.38 398.6 515.49 393.41C537.67 384.48 554.84 381.74 565.78 382.43C578.98 383.35 592.88 395.9 614.75 401.21C660.81 393.41 697.63 380.08 744.07 356.68C787.95 476.77 672.66 544.87 575.97 662.73C493.18 763.82 484.51 913.36 627.3 979.46Z" />
					<g id="&lt;Group&gt;">
						<path id="&lt;Path&gt;" class="shp13" d="M616.54 979.33L588.12 978.23C578.67 977.43 569.26 976.23 559.81 975.25C550.43 973.81 541.11 971.94 531.75 970.3C522.54 967.98 513.3 965.71 504.15 963.12C467.8 951.85 433.34 934.06 403.54 910.09C389.02 897.73 374.99 884.55 363.37 869.32C357.11 862.07 352.06 853.91 346.55 846.1C343.95 842.08 341.67 837.88 339.21 833.77L335.59 827.58C334.43 825.5 333.44 823.31 332.36 821.18L326.01 808.32L320.56 795.05C319.67 792.84 318.7 790.65 317.88 788.4L315.6 781.6C314.13 777.06 312.47 772.57 311.15 767.97C308.76 758.72 306.02 749.55 304.41 740.11L303.02 733.08L302.32 729.56L301.84 726.01L299.91 711.8C296 673.8 297.99 635.1 306.9 597.91C311.33 579.35 317.13 561.02 325.19 543.66C333.16 526.31 342.5 509.43 354.49 494.45C366.47 480.15 370.75 461.33 375.4 443.11C379.89 424.73 384.4 406.14 391.47 388.4C398.5 370.68 408.05 353.92 420.02 339.11C426.04 331.73 432.65 324.87 439.65 318.46C446.68 312.06 454.29 306.37 462.03 300.91C446.79 312.16 432.85 325.19 421.27 340.1C409.76 355.06 400.74 371.81 394.21 389.46C387.53 407.09 383.31 425.51 379.08 443.99C376.94 453.23 374.73 462.5 371.66 471.62C370.07 476.16 368.36 480.7 366.06 485.02C365.01 487.22 363.66 489.29 362.36 491.37L358.16 497.26L349.97 508.7L342.68 520.72L340.85 523.73L339.22 526.84L335.99 533.09L332.76 539.34C331.75 541.46 330.87 543.64 329.92 545.78C322.09 562.85 316.49 580.89 312.21 599.16C303.63 635.75 301.88 673.83 305.87 711.15L307.7 725.11L308.15 728.61L308.82 732.06L310.16 738.98C311.69 748.25 314.34 757.27 316.65 766.38C317.92 770.89 319.53 775.31 320.96 779.78L323.16 786.47C323.95 788.68 324.9 790.83 325.76 793.01L331.05 806.06L337.22 818.71C338.27 820.81 339.23 822.96 340.36 825.01L343.88 831.11C346.28 835.14 348.5 839.28 351.03 843.23C356.4 850.92 361.31 858.96 367.43 866.1C378.81 881.06 392.38 894.16 406.47 906.55C435.42 930.54 469.18 948.58 505.03 960.33C540.88 972.29 578.71 977.65 616.54 979.33Z" />
					</g>
					<path id="&lt;Path&gt;" class="shp14" d="M627.3 979.46C295.15 943.25 326.3 580.99 466.82 514.24C454.22 512.02 436.3 511.04 413.06 511.29C460.53 456.4 684.51 455.66 744.07 356.68C787.95 476.77 672.66 544.87 575.97 662.73C493.18 763.82 484.51 913.36 627.3 979.46Z" />
					<path id="&lt;Path&gt;" class="shp15" d="M630.18 569.18C606.6 593.85 582.29 619.34 558.46 648.4C505.17 713.41 482.81 793.41 498.59 862.34C505.6 892.8 519.5 919.99 539.81 943.25C469.66 919.64 415.23 803.3 432.62 705.96C420.77 724.26 410.92 744.17 404.17 764.91C378.94 512.02 683.29 497.55 729.39 388.88C739.85 450.41 698.71 497.42 630.18 569.18Z" />
					<path id="&lt;Path&gt;" class="shp16" d="M630.18 569.18C606.6 593.85 582.29 619.34 558.46 648.4C505.17 713.41 482.81 793.41 498.59 862.34C505.6 892.8 519.5 919.99 539.81 943.25C433.32 860.9 458.39 696.7 519.66 618.83C507.81 621.79 492.08 629.99 472.47 643.43C519.66 540.21 731.01 493.28 729.39 388.88C739.85 450.41 698.71 497.42 630.18 569.18Z" />
					<g id="&lt;Group&gt;">
						<path id="&lt;Path&gt;" class="shp17" d="M432.62 705.96C421.24 724.64 411.75 744.48 405.4 765.31L403.57 771.33L402.87 765.04C401.64 754 400.96 742.89 400.99 731.75C401.1 720.62 401.84 709.48 403.37 698.42C406.49 676.32 413.07 654.59 423.22 634.61C433.27 614.57 446.68 596.31 462.1 580.14C469.81 572.04 478 564.43 486.53 557.24C495.11 550.1 504.04 543.42 513.17 537.06C549.79 511.67 589.43 491.51 628.46 470.88C647.93 460.46 667.2 449.65 685.21 436.98C694.16 430.59 702.8 423.71 710.44 415.79C714.3 411.86 717.77 407.58 721.05 403.16C724.24 398.67 727.04 393.89 729.39 388.88C727.29 394 724.71 398.93 721.72 403.61C718.63 408.23 715.24 412.65 711.5 416.77C704.06 425.05 695.58 432.33 686.78 439.11C669.03 452.54 649.76 463.68 630.51 474.61L572.51 506.79C553.31 517.67 534.43 529.09 516.48 541.78C507.5 548.12 498.77 554.79 490.38 561.84C481.94 568.84 473.85 576.24 466.25 584.12C451.04 599.83 437.85 617.54 427.91 637C418 656.45 411.13 677.44 407.54 699.06C405.8 709.88 404.83 720.83 404.47 731.81C404.18 742.8 404.71 753.79 405.46 764.78L402.93 764.51C410.15 743.71 420.24 724.01 432.62 705.96Z" />
					</g>
					<g id="&lt;Group&gt;">
						<path id="&lt;Path&gt;" class="shp18" d="M627.3 979.46C600.48 977 573.75 972.21 547.92 964.13C522.07 956.16 497.26 944.58 474.55 929.66C463.19 922.2 452.47 913.75 442.5 904.48C432.58 895.17 423.43 885.02 415.2 874.16C398.72 852.46 386.01 827.95 377.4 802.1C368.71 776.27 364.36 749.07 363.7 721.89C363.06 694.69 366.16 667.41 373.09 641.11C379.99 614.83 390.88 589.47 406.19 566.96C421.32 544.48 441.62 524.79 466.41 513.38L466.66 515.18C457.9 513.58 448.93 512.87 439.98 512.32C431.02 511.78 422.05 511.42 413.06 511.29C422.05 511.07 431.04 510.99 440.03 511.25C449.02 511.53 458.01 511.96 466.99 513.3L469.91 513.74L467.23 515.1C455.3 521.14 444.35 529 434.78 538.29C425.1 547.46 416.65 557.91 409.39 569.1C394.7 591.43 384.78 616.61 378.09 642.4C364.83 694.13 366.49 749.61 382.94 800.28C391.19 825.6 403.46 849.64 419.45 870.96C427.43 881.62 436.33 891.61 445.99 900.79C455.61 910.01 465.94 918.53 476.98 926.07C499.02 941.19 523.35 952.96 548.77 961.54C574.12 970.42 600.62 975.77 627.3 979.46Z" />
					</g>
				</g>
				<g id="&lt;Group&gt;">
					<g id="&lt;Group&gt;">
						<g id="&lt;Group&gt;">
							<path id="&lt;Path&gt;" class="shp19" d="M739 939.81L726.93 951.88C725.98 950.93 725.08 949.98 724.14 949.08L638.56 863.51L585.45 810.45L638.56 757.29L691.62 810.45L711.87 830.65L739 857.73C761.64 880.42 761.64 917.17 739 939.81Z" />
							<path id="&lt;Path&gt;" class="shp20" d="M724.14 949.08L638.56 863.51L585.45 810.45L638.56 757.29L691.62 810.45L711.87 830.65C681.8 861.67 667.34 890.89 724.14 949.08Z" />
							<path id="&lt;Path&gt;" class="shp21" d="M739 763.08L675.71 826.36C655.82 846.26 655.17 878.12 673.87 898.72C674.42 899.37 675.07 900.01 675.71 900.66L585.45 810.45L638.56 757.29L726.93 668.93L739 680.99C761.64 703.63 761.64 740.39 739 763.08Z" />
							<path id="&lt;Path&gt;" class="shp22" d="M739 763.08L675.71 826.36C655.82 846.26 655.17 878.12 673.87 898.72C574.93 797.09 741.84 740.54 726.93 668.93L739 680.99C761.64 703.63 761.64 740.39 739 763.08Z" />
						</g>
						<g id="&lt;Group&gt;">
							<path id="&lt;Path&gt;" class="shp23" d="M739 763.08C729.9 773.93 720.38 784.37 710.71 794.66C701.07 804.98 691.18 815.05 681.24 825.07L677.51 828.79C676.41 830.03 675.22 831.21 674.17 832.5C673.19 833.85 672.11 835.12 671.21 836.53C670.38 837.97 669.41 839.33 668.66 840.83C665.47 846.69 663.58 853.24 662.83 859.94C661.39 873.36 665.26 887.44 673.87 898.72C663.35 889.13 657.45 874.33 658.16 859.6C658.4 852.23 660.37 844.91 663.61 838.23C664.36 836.52 665.45 834.99 666.36 833.37C667.34 831.79 668.52 830.34 669.6 828.82C670.75 827.37 672.05 826.03 673.28 824.63C674.53 823.31 675.76 822.1 677 820.83C687.02 810.89 697.09 801 707.41 791.36C717.7 781.7 728.14 772.18 739 763.08Z" />
						</g>
					</g>
					<g id="&lt;Group&gt;">
						<g id="&lt;Group&gt;">
							<path id="&lt;Path&gt;" class="shp24" d="M847.88 680.99L859.95 668.93C860.9 669.87 861.8 670.82 862.75 671.72L948.32 757.29L1001.43 810.35L948.32 863.51L895.26 810.35L875.01 790.15L847.88 763.08C825.24 740.39 825.24 703.63 847.88 680.99Z" />
							<path id="&lt;Path&gt;" class="shp25" d="M862.75 671.72L948.32 757.29L1001.43 810.35L948.32 863.51L895.26 810.35L875.01 790.15C905.08 759.14 919.55 729.91 862.75 671.72Z" />
							<path id="&lt;Path&gt;" class="shp26" d="M847.88 857.73L911.17 794.44C931.07 774.55 931.71 742.68 913.01 722.08C912.46 721.44 911.82 720.79 911.17 720.14L1001.43 810.35L948.32 863.51L859.95 951.88L847.88 939.81C825.24 917.17 825.24 880.42 847.88 857.73Z" />
							<path id="&lt;Path&gt;" class="shp27" d="M847.88 857.73L911.17 794.44C931.07 774.55 931.71 742.68 913.01 722.08C1011.95 823.72 845.04 880.27 859.95 951.88L847.88 939.81C825.24 917.17 825.24 880.42 847.88 857.73Z" />
						</g>
						<g id="&lt;Group&gt;">
							<path id="&lt;Path&gt;" class="shp28" d="M847.88 857.73C856.99 846.87 866.51 836.43 876.17 826.14C885.81 815.82 895.7 805.75 905.64 795.73L909.37 792.02C910.47 790.77 911.66 789.59 912.71 788.3C913.69 786.95 914.77 785.68 915.67 784.28C916.5 782.84 917.47 781.47 918.22 779.98C921.41 774.11 923.3 767.56 924.05 760.87C925.49 747.44 921.62 733.37 913.01 722.08C923.53 731.67 929.43 746.47 928.72 761.2C928.48 768.58 926.51 775.89 923.27 782.57C922.52 784.28 921.44 785.81 920.52 787.43C919.54 789.01 918.36 790.46 917.28 791.98C916.13 793.44 914.83 794.77 913.6 796.17C912.36 797.5 911.12 798.71 909.88 799.97C899.86 809.91 889.79 819.8 879.47 829.44C869.18 839.11 858.74 848.63 847.88 857.73Z" />
						</g>
					</g>
				</g>
			</g>
		</g>
	</g>
</svg>